<svg xmlns="http://www.w3.org/2000/svg" width="128" height="128" viewBox="0 0 128 128"><ellipse fill="#B8CBCD" cx="63.333" cy="112.988" rx="47.667" ry="10.186"/><path fill="#B2EDA6" d="M52.876 22.37c-6.991-6.991-17.006-9.107-25.834-6.36l17.025 17.025a5.112 5.112 0 0 1 0 7.232l-9.645 9.645a5.115 5.115 0 0 1-7.233 0L10.164 32.888c-2.747 8.828-.631 18.843 6.36 25.835 8.469 8.47 21.379 9.793 31.236 3.972l54.776 54.776a6.885 6.885 0 1 0 9.737-9.737l-54.96-54.961c5.271-9.743 3.796-22.17-4.437-30.403z"/><path fill="#3C663E" d="M107.405 122.487a9.821 9.821 0 0 1-6.99-2.895L47.212 66.389A28.724 28.724 0 0 1 34.7 69.252c-7.667 0-14.876-2.986-20.298-8.408-7.564-7.566-10.286-18.62-7.103-28.848a3 3 0 0 1 4.986-1.229L29.31 47.792c.799.797 2.192.799 2.991 0l9.645-9.646c.4-.399.62-.931.62-1.495 0-.564-.22-1.096-.619-1.495L24.92 18.131a3 3 0 0 1 1.23-4.986 28.77 28.77 0 0 1 8.558-1.299c7.665 0 14.87 2.983 20.289 8.402 8.375 8.374 10.679 21.207 5.952 31.917l53.445 53.446a9.814 9.814 0 0 1 2.896 6.989 9.816 9.816 0 0 1-2.896 6.99 9.813 9.813 0 0 1-6.989 2.897zM47.759 59.694c.776 0 1.544.301 2.122.879l54.776 54.776c1.467 1.467 4.027 1.467 5.495 0a3.86 3.86 0 0 0 1.138-2.748 3.856 3.856 0 0 0-1.138-2.746l-54.96-54.962a3.002 3.002 0 0 1-.518-3.549c4.741-8.762 3.129-19.805-3.919-26.854a22.546 22.546 0 0 0-16.046-6.645c-.514 0-1.026.017-1.536.051l13.016 13.017a8.06 8.06 0 0 1 2.376 5.737 8.06 8.06 0 0 1-2.377 5.738l-9.645 9.645a8.06 8.06 0 0 1-5.738 2.377 8.062 8.062 0 0 1-5.738-2.377l-13.021-13.02a22.643 22.643 0 0 0 6.6 17.589 22.557 22.557 0 0 0 16.055 6.65c4.067 0 8.056-1.086 11.534-3.141a2.99 2.99 0 0 1 1.524-.417z"/><path fill="#F6E89A" d="M19.447 99.739c-2.33 2.33-1.73 6.709 4.544 12.982 6.274 6.273 10.653 6.874 12.983 4.545l32.458-29.861c2.331-2.33.432-8.007-5.842-14.282-6.274-6.273-11.951-8.172-14.281-5.841L19.447 99.739z"/><path fill="#8D4520" d="M33.864 121.519c-3.53 0-7.565-2.246-11.995-6.676-3.315-3.314-5.419-6.423-6.254-9.239-.917-3.097-.328-5.911 1.66-7.936L47.1 65.251l.086-.09c1.203-1.203 2.841-1.84 4.737-1.84 3.938 0 8.833 2.727 13.787 7.681 7.401 7.402 9.694 14.674 5.842 18.524-.029.03-.06.059-.09.087l-32.418 29.824c-1.387 1.362-3.176 2.082-5.18 2.082zm17.575-52.123L21.655 101.77c-.028.03-.057.061-.087.09-.17.17-.62.62-.199 2.039.376 1.27 1.504 3.462 4.743 6.701 4.44 4.438 6.9 4.918 7.753 4.918.542 0 .804-.188.988-.374l.09-.086 32.382-29.792c.345-.457-.066-4.229-5.857-10.022-4.372-4.371-7.874-5.923-9.544-5.923-.303 0-.447.054-.485.075z"/><path fill="#8D4520" d="M66.835 90.386c-3.573 0-8.274-2.584-13.099-7.409-3.192-3.192-5.474-6.412-6.599-9.311-1.712-4.416-.261-6.781.756-7.798a2 2 0 0 1 2.829 2.828c-.543.543-.487 1.893.145 3.523.912 2.351 2.935 5.166 5.697 7.929 6.111 6.111 10.475 6.819 11.453 5.843a2 2 0 0 1 2.828 2.828c-1.054 1.054-2.421 1.567-4.01 1.567z"/><path fill="#F6E89A" d="M63.177 79.108l38.348-38.079c.073-.073.125-.158.192-.235 3.07.831 6.486.05 8.896-2.361L121 28.047l-12.983-12.983L97.63 25.449c-2.41 2.411-3.192 5.826-2.361 8.897-.077.066-.162.118-.235.19l-38.349 38.08"/><path fill="#8D4520" d="M63.177 82.108a3 3 0 0 1-2.114-5.129l38.242-37.974a3.003 3.003 0 0 1 3.195-1.108 6.206 6.206 0 0 0 5.991-1.587l8.265-8.265-8.74-8.741-8.266 8.265a6.205 6.205 0 0 0-1.587 5.993 3 3 0 0 1-1.119 3.203l-38.248 37.98a3 3 0 0 1-4.228-4.258l37.454-37.191a12.218 12.218 0 0 1 3.483-9.969l10.387-10.386a3 3 0 0 1 4.243 0l12.983 12.983a2.997 2.997 0 0 1-.001 4.242l-10.386 10.386c-2.632 2.634-6.332 3.889-9.98 3.482l-37.46 37.203a2.991 2.991 0 0 1-2.114.871z"/><path opacity=".2" fill="#8D4520" d="M31.951 119.748a2.998 2.998 0 0 1-2.121-5.121l28.459-28.459a2.998 2.998 0 0 1 4.242 0 2.998 2.998 0 0 1 0 4.242l-28.459 28.459a2.991 2.991 0 0 1-2.121.879z"/></svg>